<svg xmlns="http://www.w3.org/2000/svg" width="auto" height="auto" viewBox="0 0 205 138"><defs><clipPath id="a" clipPathUnits="userSpaceOnUse"><path d="M0 247.475h350V0H0Z"/></clipPath></defs><g clip-path="url(#a)" transform="matrix(1.33333 0 0 -1.33333 -130.627 238.13)"><path d="m0 0 .223.22c-.481.556-.921 1.392-1.328 2.517-.406 1.125-.61 2.37-.61 3.735v32.579c0 1.695.59 3.189 1.772 4.48v.22c-1.254-.738-2.175-1.254-2.765-1.548-.887.921-2.213 1.843-3.985 2.765-1.769.922-3.392 1.603-4.866 2.047l-.22-.221a8.15 8.15 0 0 0 1.823-3.429c.332-1.291.498-2.86.498-4.703V20.406l-6.064 20.866v.001l-.012.039-.013-.004c-.226.376-.707.795-.753.837-.046.041-.062.102-.1.149l-.016-.008c-.887.921-2.213 1.843-3.985 2.765-1.769.922-3.392 1.603-4.866 2.047l-.22-.221a8.15 8.15 0 0 0 1.823-3.429c.332-1.291.498-2.86.498-4.703V9.375c0-1.881-.515-3.392-1.548-4.534l.223-.166c1.251.735 2.173 1.253 2.765 1.548 1.583-1.918 4.26-3.964 8.018-6.14l.223.22c-.481.556-.921 1.392-1.328 2.517-.406 1.125-.61 2.37-.61 3.735v29.271l5.965-20.523V9.292c0-1.881-.515-3.392-1.549-4.534l.224-.166c1.251.735 2.172 1.253 2.765 1.548C-6.435 4.222-3.759 2.176 0 0" style="fill:#c41e26;fill-opacity:1;fill-rule:nonzero;stroke:none" transform="translate(124.019 129.076)"/><path d="M0 0c.776.461 1.345.804 1.715 1.025C3.633 2.13 4.987 3.034 5.782 3.736c.79.698 1.188 1.548 1.188 2.542v13.995l5.974 3.483V5.173c0-2.067-.518-3.725-1.548-4.978l.22-.221c.702.478 1.898 1.217 3.596 2.213.921-.925 2-1.726 3.234-2.407 1.237-.682 2.37-1.134 3.404-1.354l.22.22c-.589.922-.967 1.844-1.133 2.765-.166.922-.249 2.064-.249 3.43v33.297c0 1.88.589 3.521 1.769 4.923v.278l-2.654-1.66-4.757 4.036-6.083-3.704 3.981-3.982v-9.681L6.97 24.864V36.81c0 1.88.59 3.521 1.769 4.923v.278a87.296 87.296 0 0 0-3.595-2.267C3.006 38.49 1.486 37.465.581 36.672c-.904-.793-1.354-1.706-1.354-2.736V3.844c0-2.063-.518-3.724-1.549-4.978l.221-.22A32.1 32.1 0 0 0 0 0" style="fill:#c41e26;fill-opacity:1;fill-rule:nonzero;stroke:none" transform="translate(127.403 130.513)"/><path d="M0 0c.942.942 2.075 1.706 3.404 2.296l1.382-.83.221.166C3.973 2.774 3.458 4.288 3.458 6.169v26.604l2.654 5.253 2.158-1.881c.295-.257.535-.578.718-.967.184-.387.278-.747.278-1.079v-14.49c0-1.254-.544-2.774-1.632-4.563-1.087-1.789-2.075-3.143-2.96-4.065l.221-.223c2.508 1.439 5.153 3.283 7.938 5.533 2.785 2.247 4.176 4.019 4.176 5.31V36.81c0 .443-.212.884-.635 1.328-.427.443-1.134 1.068-2.13 1.88-1.586 1.292-2.822 2.471-3.707 3.541-.885 1.068-1.328 2.339-1.328 3.816l-5.751-11.45v2.545c0 2.064.59 3.89 1.769 5.476v.275c-.885-.662-2.416-1.695-4.592-3.098-1.623-.959-2.765-1.731-3.429-2.321-.59.295-1.677.902-3.263 1.826v-.223c1.182-1.291 1.772-2.785 1.772-4.48V1.245c0-1.623-.158-3.217-.47-4.783-.315-1.569-.747-2.719-1.302-3.458l.223-.22 2.267 2.931C-2.13-2.37-.939-.939 0 0" style="fill:#c41e26;fill-opacity:1;fill-rule:nonzero;stroke:none" transform="translate(156.524 131.675)"/><path d="M0 0c.776.461 1.345.804 1.715 1.025C3.633 2.13 4.987 3.034 5.782 3.736c.79.698 1.188 1.548 1.188 2.542v13.995l5.974 3.483V5.173c0-2.067-.518-3.725-1.548-4.978l.22-.221c.702.478 1.898 1.217 3.596 2.213.921-.925 2-1.726 3.234-2.407 1.237-.682 2.37-1.134 3.404-1.354l.22.22c-.589.922-.967 1.844-1.133 2.765-.166.922-.249 2.064-.249 3.43v33.297c0 1.88.589 3.521 1.769 4.923v.278l-2.654-1.66-4.757 4.036-6.083-3.704 3.981-3.982v-9.681L6.97 24.864V36.81c0 1.88.59 3.521 1.769 4.923v.278a87.296 87.296 0 0 0-3.595-2.267C3.006 38.49 1.486 37.465.581 36.672c-.904-.793-1.354-1.706-1.354-2.736V3.844c0-2.063-.518-3.724-1.549-4.978l.221-.22A32.1 32.1 0 0 0 0 0" style="fill:#c41e26;fill-opacity:1;fill-rule:nonzero;stroke:none" transform="translate(177.57 130.513)"/><path d="m0 0 .257-.287c2.592.518 5.051.446 7.374-.216 2.321-.665 4.909-1.707 7.759-3.131.24-.101.617-.27 1.128-.507a47.478 47.478 0 0 1 1.889-.807c.744-.304 1.37-.497 1.874-.583.553-.117 1.215-.096 1.981.058 1.486.297 3.083.946 4.786 1.944 1.7.996 2.917 2.001 3.642 3.011l-.147.084c-.716-.406-1.328-.66-1.839-.762-.469-.094-1.022-.093-1.66.007A51.374 51.374 0 0 0 21.557.195c-1.675.529-2.631.828-2.864.893-2.601.834-4.727 1.404-6.382 1.712-1.655.309-3.518.331-5.587.068.03.023.052.051.082.074-.523-.104-1.045-.216-1.572-.311-.145-.026-.288-.065-.433-.094 1.176.848 2.317 1.749 2.762 2.318C8.522 6.082 9 7.357 9 8.678V44.23c0 2.115.59 3.981 1.772 5.605v.284a23.685 23.685 0 0 1-3.263-3.314c-.996-1.225-2.047-2.652-3.155-4.272-1.291-1.89-2.321-3.267-3.097-4.134V1.962c.031-.343.012-.685.01-1.028C.847.645.428.361 0 0" style="fill:#c41e26;fill-opacity:1;fill-rule:nonzero;stroke:none" transform="translate(200.87 126.94)"/><path d="m0 0 .057 34.514-7.743 7.743-5.865-15.486v7.743l-7.744 7.743-5.862-15.544v6.693c0 1.697.59 3.192 1.769 4.483v.22l-2.267-1.274c-.701.996-2.01 2.01-3.928 3.043-1.917 1.034-3.724 1.827-5.418 2.379l-.224-.22a8.122 8.122 0 0 0 1.827-3.43c.332-1.291.498-2.859.498-4.703V3.65c0-1.881-.518-3.392-1.549-4.535l.221-.166c.552.332 1.162.67 1.826 1.022.664.35 1.142.619 1.437.802 1.548-1.658 4.056-3.504 7.523-5.531l.22.221c-.478.555-.922 1.391-1.325 2.516-.407 1.125-.61 2.37-.61 3.736V23.45l3.595 9.295 2.213-3.209V3.484c0-1.034.747-2.222 2.241-3.567 1.492-1.348 3.916-3.238 7.271-5.671v.278C-13.016-3.89-13.606-2.067-13.606 0l.055 23.341 3.429 9.404 2.379-3.209V3.484c0-1.034.747-2.222 2.241-3.567 1.494-1.348 3.916-3.238 7.274-5.671v.278C.59-3.89 0-2.067 0 0" style="fill:#c41e26;fill-opacity:1;fill-rule:nonzero;stroke:none" transform="translate(249.697 133.917)"/><path d="m0 0-4.234 3.108c-.662.51-.991.991-.991 1.443v21.036c0 .452.075.804.224 1.058.152.256.345.49.585.699 2.073-2.972 3.418-5.301 4.034-6.982.615-1.683.923-3.243.923-4.686l.179-.135c.42.781.856 1.758 1.308 2.928.45 1.112.877 2.052 1.283 2.816.405.765.953 1.569 1.643 2.411l-6.036 8.288-4.143-3.378c.119 1.231.6 2.343 1.441 3.334v.179c-.632-.42-1.636-1.021-3.019-1.802-1.711-.991-2.928-1.779-3.648-2.364-.721-.585-1.082-1.271-1.082-2.049V2.613c0-1.562-.42-2.853-1.261-3.874l.181-.135c.812.51 1.502.916 2.073 1.216.389-.391.884-.797 1.485-1.216l6.847-4.91 5.812 8.964-1.126.811z" style="fill:#c41e26;fill-opacity:1;fill-rule:nonzero;stroke:none" transform="translate(127.296 86.355)"/><path d="m0 0-4.821 3.199-3.199-4.551 2.569-2.07c.21-.182.376-.422.495-.723.118-.299.179-.599.179-.9v-23.108l-1.576-2.073-2.296 1.846c-.571.481-.856 1.066-.856 1.758v25.137c.089 1.17.555 2.205 1.397 3.108v.179C-8.74 1.41-9.717.856-11.037.135c-1.743-.96-2.981-1.727-3.716-2.296-.736-.571-1.105-1.233-1.105-1.984v-22.118c0-1.531-.42-2.762-1.261-3.693l.179-.135 1.173.676c.119-.811.434-1.503.947-2.072a6.747 6.747 0 0 1 1.711-1.397l4.865-2.658 3.467 5.09v-2.658l6.309 7.659v22.614c0 .541-.135 1.072-.406 1.599C.856-.713.48-.301 0 0" style="fill:#c41e26;fill-opacity:1;fill-rule:nonzero;stroke:none" transform="translate(148.966 115.275)"/><path d="M0 0c-.18-.27-.676-.944-1.485-2.026a49.745 49.745 0 0 1-2.208-2.928c-.331.541-.615 1.208-.855 2.005a8.817 8.817 0 0 0-.362 2.59v10.901l1.173 1.08 3.152-2.297c.24-.179.398-.382.473-.608.075-.224.112-.534.112-.923Zm-4.91 24.687 1.847 3.154c.99-.723 1.72-1.322 2.184-1.802.466-.483.699-1.021.699-1.623v-7.208l-4.73-4.549ZM5.227 12.75.811 15.767l1.667 1.532c1.262 1.142 2.185 2.056 2.77 2.748.587.69.879 1.276.879 1.756v4.371c0 .9-.676 1.975-2.026 3.22A27.154 27.154 0 0 1-.224 32.66l.044 1.758-4.73-7.253v1.17c0 1.562.48 2.942 1.441 4.145v.18c-.329-.21-1.38-.872-3.152-1.982l-.856-.541c-.841.511-1.771.998-2.793 1.465-1.021.466-1.907.818-2.657 1.058l-.182-.18a6.6 6.6 0 0 0 1.487-2.793c.271-1.051.406-2.329.406-3.83V.811c0-1.741-.422-3.138-1.261-4.189l.179-.18c.902.6 1.562 1.022 1.982 1.262l1.128.72c1.201-1.17 2.942-2.432 5.225-3.784-1.082-1.681-1.924-3.212-2.523-4.595l.18-.179c1.291 2.072 3.182 4.031 5.677 5.877C1.863-2.408 4.175-1.096 6.306-.315v10.631c0 1.143-.359 1.952-1.079 2.434" style="fill:#c41e26;fill-opacity:1;fill-rule:nonzero;stroke:none" transform="translate(165.406 85.679)"/><path d="M0 0v11.219l1.849 3.107c.839-.632 1.478-1.18 1.914-1.643.433-.467.653-.987.653-1.555V3.334c-.061-.061-.511-.389-1.353-.991C1.443 1.261.422.48 0 0m10.901-4.143c0 .9-.795 1.854-2.387 2.861a32.247 32.247 0 0 1-5.045 2.59c1.562.991 3.98 2.266 7.253 3.828v7.612c0 1.173-.616 2.292-1.847 3.357-1.231 1.065-2.732 2.171-4.504 3.311v1.261L0 13.785v.315c0 1.383.48 2.597 1.443 3.649v.181a726.988 726.988 0 0 0-2.658-1.531c-.811.69-1.876 1.373-3.198 2.049-1.322.676-2.523 1.177-3.605 1.508l-.179-.179a6.636 6.636 0 0 0 1.485-2.793c.27-1.052.406-2.329.406-3.83v-23.288c0-1.532-.42-2.765-1.262-3.696l.182-.135 1.891 1.082c1.112-1.562 3.408-3.378 6.891-5.451l.182.18c-.391.452-.75 1.133-1.081 2.049-.331.916-.497 1.93-.497 3.042v11.352C.361-1.14 1.007-.494 1.937.226 3.709-.406 4.595-1.17 4.595-2.073v-9.234c0-1.052.774-2.266 2.32-3.649 1.548-1.38 3.177-2.508 4.889-3.378l.179.18c-.72.69-1.082 2.222-1.082 4.595z" style="fill:#c41e26;fill-opacity:1;fill-rule:nonzero;stroke:none" transform="translate(181.306 98.382)"/><path d="M0 0c.301.48.692 1.245 1.173 2.296.389.842.75 1.532 1.079 2.073.331.541.828 1.187 1.488 1.937l-6.712 7.703a9.642 9.642 0 0 0-1.374-1.734 43.462 43.462 0 0 0-2.14-1.959l-1.352-1.217v1.126c0 .632.061 1.143.182 1.532.119.389.322.781.606 1.17.287.392.504.693.655.903l-.182.179c-1.021-.781-2.252-1.592-3.693-2.431-.99-.572-1.734-1.038-2.231-1.397a4.48 4.48 0 0 1-1.214-1.329c-.317-.527-.474-1.18-.474-1.96V-5.089c0-.483.157-.933.474-1.352.314-.422.757-.632 1.329-.632.24 0 .494.046.764.135l7.703 2.704v-14.867c0-.48-.098-.967-.291-1.464-.196-.494-.415-.832-.653-1.012l-4.642 8.062c-.359.541-1.065.811-2.117.811-1.2 0-2.597-.331-4.189-.99-1.292-.538-2.272-1.084-2.97-1.641V7.162c0 1.532.48 2.867 1.44 4.01v.226l-2.161-1.352-3.874 3.287-4.955-3.017 3.243-3.243V-.811l-4.865-2.838V6.08c0 1.532.48 2.868 1.441 4.01v.226a71.755 71.755 0 0 0-2.929-1.846c-1.741-1.021-2.979-1.856-3.716-2.502-.737-.645-1.103-1.389-1.103-2.228v-24.508c0-1.681-.422-3.033-1.261-4.054l.18-.179c.51.361 1.081.727 1.711 1.102.632.376 1.096.655 1.396.835 1.562.9 2.665 1.637 3.313 2.208.644.569.968 1.261.968 2.07v11.398l4.865 2.837v-15.135c0-1.683-.422-3.033-1.261-4.054l.18-.18c.571.39 1.545.991 2.928 1.802a11.605 11.605 0 0 1 2.634-1.96c1.007-.555 1.931-.923 2.772-1.103l.18.18c-.481.75-.788 1.501-.924 2.252-.135.75-.202 1.681-.202 2.793v4.103c.575.222 1.108.356 1.573.356 1.833 0 3.409-1.321 4.731-3.963l4.098-7.117c.662 1.2 1.714 2.394 3.154 3.58 1.441 1.187 2.905 2.162 4.393 2.929 1.487.764 2.574 1.149 3.266 1.149v16.306c0 .27-.159.547-.473.834a1.594 1.594 0 0 1-1.105.427 2.51 2.51 0 0 1-.539-.089l-8.155-2.884V7.794c.601.72 1.231 1.305 1.893 1.755l4.413-5.315c.392-.511.73-1.021 1.014-1.532.285-.511.429-1.126.429-1.846 0-.18-.03-.42-.091-.721z" style="fill:#c41e26;fill-opacity:1;fill-rule:nonzero;stroke:none" transform="translate(231.76 105.05)"/></g></svg>